<svg width="198" height="25" viewBox="0 0 198 25" fill="none" xmlns="http://www.w3.org/2000/svg">
  <path
    d="M0.8125 17.6562V16.8125H6.57812V17.3594C6.56771 18.3281 6.84896 19.0573 7.42188 19.5469C7.99479 20.026 8.79688 20.2656 9.82812 20.2656C10.8177 20.2656 11.5781 20.0573 12.1094 19.6406C12.651 19.2135 12.9219 18.6406 12.9219 17.9219C12.9219 17.1823 12.651 16.6094 12.1094 16.2031C11.5677 15.7969 10.3177 15.3229 8.35938 14.7812C5.99479 14.1146 4.19271 13.2292 2.95312 12.125C1.71354 11.0104 1.09375 9.51042 1.09375 7.625C1.09375 5.52083 1.875 3.86979 3.4375 2.67188C5 1.46354 7.07292 0.859375 9.65625 0.859375C12.2396 0.859375 14.3229 1.44271 15.9062 2.60938C17.4896 3.77604 18.2812 5.38021 18.2812 7.42188V8.14062H12.625V7.71875C12.625 6.90625 12.3802 6.26562 11.8906 5.79688C11.401 5.31771 10.6823 5.07812 9.73438 5.07812C8.76562 5.07812 8.05729 5.26562 7.60938 5.64062C7.16146 6.01562 6.9375 6.51562 6.9375 7.14062C6.9375 7.76562 7.20833 8.25 7.75 8.59375C8.30208 8.92708 9.58854 9.36979 11.6094 9.92188C13.8802 10.5573 15.6354 11.4375 16.875 12.5625C18.125 13.6875 18.75 15.2865 18.75 17.3594C18.75 19.6094 17.9323 21.349 16.2969 22.5781C14.6615 23.7969 12.5208 24.4062 9.875 24.4062C7.23958 24.4062 5.06771 23.8385 3.35938 22.7031C1.66146 21.5677 0.8125 19.8854 0.8125 17.6562ZM21.375 24V1.25H37.0625V5.8125H27.1875V10.2812H35.6875V14.5156H27.1875V19.5312H37.2656V24H21.375ZM39.7812 24V1.25H45.7344V19.4375H54.8125V24H39.7812ZM57.0938 24V1.25H63.0469V19.4375H72.125V24H57.0938ZM74.4062 24V1.25H90.0938V5.8125H80.2188V10.2812H88.7188V14.5156H80.2188V19.5312H90.2969V24H74.4062ZM92.8125 24V1.25H102.141C104.661 1.25 106.651 1.90625 108.109 3.21875C109.568 4.52083 110.297 6.31771 110.297 8.60938C110.297 10.9531 109.542 12.8073 108.031 14.1719C106.531 15.5365 104.552 16.2188 102.094 16.2188H98.7656V24H92.8125ZM98.7656 12.1719H101.297C102.391 12.1719 103.167 11.875 103.625 11.2812C104.083 10.6771 104.312 9.85938 104.312 8.82812C104.312 7.79688 104.083 6.98958 103.625 6.40625C103.167 5.8125 102.391 5.51562 101.297 5.51562H98.7656V12.1719ZM104.734 24L100.094 13.8438L105.891 13L111.312 24H104.734ZM113.094 24V1.25H119.047V9.89062H125.891V1.25H131.859V24H125.891V14.625H119.047V24H113.094ZM133.297 24L141.344 1.1875H147.844L155.922 24H149.766L144.797 8.98438C144.672 8.59896 144.573 8.24479 144.5 7.92188C144.438 7.59896 144.38 7.30729 144.328 7.04688H144.234C144.182 7.30729 144.12 7.59896 144.047 7.92188C143.974 8.24479 143.875 8.59375 143.75 8.96875L138.906 24H133.297ZM138.281 19.6406L139.312 15.5625H149.516L150.594 19.6406H138.281ZM156.188 13.2969V11.9531C156.188 8.16146 157.12 5.36458 158.984 3.5625C160.849 1.76042 163.302 0.859375 166.344 0.859375C169.198 0.859375 171.453 1.5625 173.109 2.96875C174.776 4.375 175.609 6.33854 175.609 8.85938V9.84375H169.781V8.53125C169.781 7.41667 169.495 6.57292 168.922 6C168.359 5.42708 167.505 5.14062 166.359 5.14062C165.151 5.14062 164.198 5.5625 163.5 6.40625C162.802 7.25 162.453 8.67188 162.453 10.6719V14.5781C162.453 16.4948 162.797 17.9062 163.484 18.8125C164.172 19.7188 165.151 20.1719 166.422 20.1719C167.526 20.1719 168.354 19.8594 168.906 19.2344C169.458 18.599 169.745 17.6875 169.766 16.5L169.781 15.4531H175.609L175.594 16.5938C175.562 18.9583 174.729 20.849 173.094 22.2656C171.458 23.6823 169.203 24.3906 166.328 24.3906C163.245 24.3906 160.781 23.4792 158.938 21.6562C157.104 19.8229 156.188 17.0365 156.188 13.2969ZM178.094 24V1.25H184.047V9.53125L190.703 1.25H196.906L184.047 16.5469V24H178.094ZM191.016 24L184.109 13.3438L187.797 8.96875L197.969 24H191.016Z"
    fill="#4F5361" />
</svg>